<svg xmlns="http://www.w3.org/2000/svg" width="106" height="27" fill="none"><path fill="#fff" d="M16.598 26v-4.896H6.466V1.792H.754V26h15.844ZM18.79 13.896c0 7.684 5.44 12.954 13.396 12.954 7.922 0 13.396-5.27 13.396-12.954 0-7.65-5.474-12.954-13.396-12.954-7.956 0-13.396 5.304-13.396 12.954Zm5.712 0c0-4.726 3.162-8.058 7.684-8.058s7.684 3.332 7.684 8.058-3.162 8.058-7.684 8.058c-4.522-.034-7.684-3.332-7.684-8.058ZM69.511 16.004c-.204 3.366-3.298 5.95-7.14 5.95-4.556 0-7.82-3.4-7.82-8.058 0-4.692 3.196-8.058 7.65-8.058 2.856 0 5.44 1.632 6.222 3.876l5.236-1.156C72.47 4.104 67.777.942 62.235.942c-7.786 0-13.396 5.44-13.396 12.954S54.45 26.85 62.235 26.85c8.16 0 13.566-6.12 12.784-14.586H62.031v3.74h7.48ZM78.357 13.896c0 7.684 5.44 12.954 13.396 12.954 7.922 0 13.396-5.27 13.396-12.954 0-7.65-5.474-12.954-13.396-12.954-7.956 0-13.396 5.304-13.396 12.954Zm5.712 0c0-4.726 3.162-8.058 7.684-8.058s7.684 3.332 7.684 8.058-3.162 8.058-7.684 8.058c-4.522-.034-7.684-3.332-7.684-8.058Z"/></svg>