<svg xmlns="http://www.w3.org/2000/svg" width="124" height="31" fill="none"><g fill="#4A99D3"><path d="M18.88 30v-5.76H6.96V1.52H.24V30h18.64ZM21.46 15.76c0 9.04 6.4 15.24 15.76 15.24 9.32 0 15.76-6.2 15.76-15.24 0-9-6.44-15.24-15.76-15.24-9.36 0-15.76 6.24-15.76 15.24Zm6.72 0c0-5.56 3.72-9.48 9.04-9.48 5.32 0 9.04 3.92 9.04 9.48 0 5.56-3.72 9.48-9.04 9.48-5.32-.04-9.04-3.92-9.04-9.48ZM81.13 18.24c-.24 3.96-3.88 7-8.4 7-5.36 0-9.2-4-9.2-9.48 0-5.52 3.76-9.48 9-9.48 3.36 0 6.4 1.92 7.32 4.56l6.16-1.36C84.61 4.24 79.09.52 72.57.52c-9.16 0-15.76 6.4-15.76 15.24S63.41 31 72.57 31c9.6 0 15.96-7.2 15.04-17.16H72.33v4.4h8.8ZM91.537 15.76c0 9.04 6.4 15.24 15.76 15.24 9.32 0 15.76-6.2 15.76-15.24 0-9-6.44-15.24-15.76-15.24-9.36 0-15.76 6.24-15.76 15.24Zm6.72 0c0-5.56 3.72-9.48 9.04-9.48 5.32 0 9.04 3.92 9.04 9.48 0 5.56-3.72 9.48-9.04 9.48-5.32-.04-9.04-3.92-9.04-9.48Z"/></g></svg>