<svg xmlns="http://www.w3.org/2000/svg" width="134" height="17" fill="none"><path fill="#fff" fill-rule="evenodd" d="M49 .655c-2.172 0-2.445.01-3.298.049-.852.039-1.433.173-1.942.371a3.917 3.917 0 0 0-1.417.923 3.927 3.927 0 0 0-.923 1.417c-.199.509-.334 1.09-.372 1.941-.038.854-.048 1.127-.048 3.3 0 2.172.01 2.444.048 3.297.04.852.174 1.433.372 1.942.204.526.478.972.923 1.417.444.445.89.719 1.416.923.51.198 1.09.333 1.942.372.854.039 1.126.048 3.299.048 2.172 0 2.444-.01 3.298-.048.851-.04 1.433-.174 1.942-.372a3.915 3.915 0 0 0 1.416-.923c.446-.445.719-.891.924-1.417.197-.509.331-1.09.372-1.942.038-.853.048-1.125.048-3.298 0-2.172-.01-2.445-.048-3.298-.04-.852-.175-1.433-.372-1.942a3.926 3.926 0 0 0-.923-1.417 3.91 3.91 0 0 0-1.417-.923c-.51-.198-1.092-.332-1.944-.371-.853-.04-1.124-.049-3.298-.049h.003Zm-.717 1.442h.718c2.136 0 2.389.008 3.233.046.78.036 1.203.166 1.485.275.373.145.64.319.92.599.28.28.453.546.598.92.11.281.24.705.275 1.485.039.843.047 1.096.047 3.231s-.008 2.389-.047 3.232c-.035.78-.166 1.203-.275 1.485-.145.373-.319.64-.599.92-.28.28-.546.452-.92.597-.28.11-.705.24-1.485.276-.843.038-1.096.047-3.232.047s-2.39-.009-3.233-.047c-.78-.036-1.203-.166-1.485-.276a2.477 2.477 0 0 1-.92-.598 2.48 2.48 0 0 1-.599-.92c-.11-.281-.24-.705-.276-1.485-.038-.843-.045-1.096-.045-3.233 0-2.136.007-2.388.046-3.231.035-.78.166-1.204.275-1.486.145-.373.319-.64.599-.92.28-.28.546-.453.92-.598.282-.11.705-.24 1.485-.276.738-.033 1.024-.043 2.515-.045v.002Zm4.988 1.328a.96.96 0 1 0 0 1.92.96.96 0 0 0 0-1.92Zm-4.27 1.122a4.109 4.109 0 1 0 0 8.217 4.109 4.109 0 0 0 0-8.217Zm0 1.442a2.667 2.667 0 1 1 0 5.333 2.667 2.667 0 0 1 0-5.333ZM123.934 4.912l.042.692-.699-.085c-2.546-.325-4.771-1.427-6.659-3.277l-.923-.918-.238.678c-.504 1.511-.182 3.107.867 4.18.56.594.434.679-.531.325-.336-.113-.63-.197-.658-.155-.098.099.238 1.384.504 1.893.363.706 1.105 1.398 1.916 1.807l.686.325-.812.014c-.783 0-.811.014-.727.311.28.918 1.385 1.893 2.616 2.316l.867.297-.755.452a7.874 7.874 0 0 1-3.749 1.045c-.63.014-1.148.07-1.148.113 0 .141 1.707.932 2.7 1.243 2.98.918 6.52.522 9.178-1.045 1.888-1.116 3.777-3.333 4.658-5.48.476-1.144.951-3.234.951-4.237 0-.65.042-.735.826-1.511.461-.452.895-.947.979-1.088.14-.268.126-.268-.587-.028-1.19.424-1.357.367-.77-.268.434-.452.951-1.272.951-1.512 0-.042-.209.029-.447.156-.252.14-.812.353-1.231.48l-.756.24-.685-.466c-.378-.254-.91-.537-1.189-.622-.714-.197-1.805-.169-2.449.057-1.748.636-2.853 2.274-2.728 4.068ZM21.796 3.154a2.826 2.826 0 0 0-1.968-2.021C18.091.655 11.13.655 11.13.655s-6.96 0-8.697.478a2.826 2.826 0 0 0-1.968 2.02C0 4.937 0 8.656 0 8.656s0 3.72.465 5.502a2.826 2.826 0 0 0 1.968 2.02c1.736.478 8.697.478 8.697.478s6.962 0 8.697-.477a2.826 2.826 0 0 0 1.969-2.021c.465-1.783.465-5.502.465-5.502s0-3.719-.465-5.501Z" clip-rule="evenodd"/><path fill="#533E2D" fill-rule="evenodd" d="M9.044 12.481V5.525l5.565 3.478-5.565 3.478Z" clip-rule="evenodd"/><path fill="#fff" fill-rule="evenodd" d="M86.964 16.655v-8h2.209l.293-2.758h-2.502l.004-1.38c0-.719.068-1.104 1.101-1.104h1.38V.655h-2.208c-2.653 0-3.587 1.338-3.587 3.587v1.655H82v2.758h1.654v8h3.31Z" clip-rule="evenodd"/></svg>